<svg xmlns="http://www.w3.org/2000/svg" xmlns:xlink="http://www.w3.org/1999/xlink" width="1080" zoomAndPan="magnify" viewBox="0 0 810 809.999993" height="1080" preserveAspectRatio="xMidYMid meet" version="1.0"><defs><clipPath id="d8e65b02d3"><path d="M 0 0 L 11.25 0 L 11.25 11.25 L 0 11.25 Z M 0 0 " clip-rule="nonzero"/></clipPath></defs><g clip-path="url(#d8e65b02d3)"><path fill="#d1d3d4" d="M 5.695312 0 C 2.542969 0 0 2.566406 0 5.695312 C 0 8.847656 2.566406 11.390625 5.695312 11.390625 C 8.847656 11.390625 11.390625 8.820312 11.390625 5.695312 C 11.390625 2.566406 8.847656 0 5.695312 0 Z M 9.226562 8.441406 C 9.074219 8.949219 8.390625 9.6875 7.753906 9.6875 L 7.703125 9.660156 C 6.761719 9.609375 5.464844 8.71875 4.269531 7.269531 L 3.839844 6.738281 C 2.644531 5.289062 2.007812 3.863281 2.160156 2.949219 C 2.261719 2.289062 3.226562 1.753906 3.789062 1.753906 C 4.066406 1.753906 4.167969 1.882812 4.195312 1.984375 C 4.5 2.542969 4.90625 3.507812 4.90625 3.863281 L 4.90625 3.914062 C 4.828125 4.09375 4.675781 4.195312 4.550781 4.269531 C 4.371094 4.371094 4.269531 4.449219 4.246094 4.628906 C 4.246094 4.679688 4.296875 4.957031 5.085938 5.921875 L 5.414062 6.332031 C 6.203125 7.269531 6.457031 7.371094 6.507812 7.371094 C 6.710938 7.398438 6.789062 7.320312 6.941406 7.167969 C 7.042969 7.042969 7.167969 6.914062 7.347656 6.890625 L 7.398438 6.890625 C 7.753906 6.964844 8.617188 7.523438 9.125 7.957031 C 9.203125 7.984375 9.328125 8.109375 9.226562 8.441406 Z M 9.226562 8.441406 " fill-opacity="1" fill-rule="nonzero"/></g></svg>